<svg width="156" height="169" viewBox="0 0 156 169" fill="none" xmlns="http://www.w3.org/2000/svg">
<path d="M87.7483 23.9393C87.0485 24.6813 86.4627 25.3154 86.0246 25.7945C81.0298 24.6961 74.9761 24.127 69.893 24.127C66.0631 24.127 62.307 24.4496 58.6506 25.0695C53.1278 23.4196 48.763 21.8496 43.458 16.2745C43.0417 15.8369 42.5975 15.3625 42.129 14.8622C39.4255 11.9751 35.9157 8.22693 32.312 5.73531C30.1862 4.26557 27.7954 3.0603 25.3103 2.83166C22.6819 2.58984 20.1648 3.46369 18.0443 5.71477C14.2776 9.71361 10.9285 17.6801 8.97387 27.9313C7.02637 38.1449 6.40121 50.9424 8.2782 65.0993C4.94581 73.0439 3.10558 81.767 3.10558 90.9144C3.10558 104.56 7.20006 117.255 14.2278 127.832C24.879 150.562 47.9663 166.312 74.7368 166.312C105.953 166.312 132.162 144.899 139.486 115.962C143.557 108.599 145.836 100.402 145.836 91.7593C145.836 74.1729 136.422 58.5157 121.742 47.8742C117.474 39.6951 117.285 33.9533 117.081 27.7192C117.043 26.5619 117.004 25.3875 116.939 24.1775C116.872 22.9397 116.839 21.853 116.807 20.7997C116.784 20.0271 116.761 19.2723 116.725 18.4891C116.648 16.7799 116.515 15.1015 116.13 13.6436C115.737 12.156 115.03 10.6948 113.661 9.64653C112.3 8.60415 110.587 8.20077 108.648 8.20079C107.405 8.20081 106.143 8.64156 105.014 9.1861C103.847 9.74857 102.62 10.5226 101.395 11.4002C98.9439 13.1567 96.3173 15.4636 93.9327 17.7212C91.5386 19.9879 89.3428 22.2487 87.7483 23.9393Z" fill="url(#paint0_linear_15_2465)" stroke="black" stroke-width="4.41481"/>
<path fill-rule="evenodd" clip-rule="evenodd" d="M7.76589 108.611C9.62089 115.136 12.4761 121.24 16.1551 126.746C26.4252 148.81 48.7939 164.105 74.735 164.105C105.016 164.105 130.429 143.264 137.414 115.144C141.403 108.022 143.627 100.103 143.627 91.7597C143.627 83.4058 141.398 75.4771 137.399 68.3487C134.92 67.5144 132.782 67.5108 131.095 68.4488C128.491 69.8961 127.252 73.4247 127.241 78.4727C127.234 81.6685 123.939 84.1905 120.88 83.2658C111.976 80.5741 103.341 80.93 96.1129 84.9485C94.2921 85.9608 92.6242 87.1703 91.1103 88.5562C84.1875 94.8942 68.5004 98.9865 61.2136 93.0706C47.1295 81.6362 32.0248 77.4189 21.0557 83.5175C13.0824 87.9505 8.64831 97.081 7.76589 108.611Z" fill="white"/>
<path fill-rule="evenodd" clip-rule="evenodd" d="M70.4294 149.572C49.9791 151.456 29.4784 136.629 15.147 124.463C24.9037 147.747 47.9094 164.103 74.7352 164.103C104.945 164.103 130.311 143.359 137.365 115.339L136.019 118.369C134.658 121.435 130.841 122.501 128.088 120.586V120.586C127.669 122.827 126.771 124.93 125.485 126.815C121.884 131.374 117.2 134.344 111.398 135.419C110.085 135.639 108.728 135.755 107.339 135.755C103.515 135.755 99.9285 134.877 96.8392 133.344C97.5746 135.786 90.8798 147.689 70.4294 149.572Z" fill="#EBE8F3"/>
<path d="M23.552 48.9233C19.8572 36.8249 20.8026 22.0131 23.552 13.4641C28.3661 29.5765 40.0265 39.0601 40.0265 39.0601C35.1635 40.1158 28.2158 44.2039 23.552 48.9233Z" fill="black"/>
<path d="M99.1961 91.7219C102.852 83.9237 124.333 82.531 127.719 91.7219C129.603 96.8344 122.013 108.463 116.956 109.212C109.69 110.289 95.1599 100.333 99.1961 91.7219Z" fill="black"/>
<path opacity="0.5" d="M77.5255 54.2935C74.6068 56.5606 63.7491 56.7519 62.6613 53.4337C61.5736 50.1155 68.5764 42.9736 73.6769 45.2319C77.9296 47.1148 81.2986 51.3628 77.5255 54.2935Z" fill="white"/>
<path opacity="0.5" d="M111.497 49.9085C109.473 52.944 104.031 52.6067 101.867 49.9085C99.7037 47.2103 100.037 42.0856 105.681 42.5028C110.386 42.8506 112.858 47.8684 111.497 49.9085Z" fill="white"/>
<path d="M95.7119 135.447C94.4992 134.369 96.0178 132.983 97.4939 133.656C100.43 134.996 103.78 135.754 107.337 135.754C116.478 135.754 124.255 130.742 127.147 123.743C127.409 123.11 128.351 123.173 128.351 123.859C128.351 133.007 119.828 140.423 109.315 140.423C103.985 140.423 99.1675 138.517 95.7119 135.447Z" fill="black"/>
<path fill-rule="evenodd" clip-rule="evenodd" d="M152.962 50.0239L19.3523 65.8289L20.1109 72.2422L40.4193 69.8399L41.1779 76.253L47.591 75.4943L48.3497 81.9076L54.7643 81.1488L54.7635 81.1491L55.5222 87.5624L76.8998 85.0336L76.1411 78.6203L76.1403 78.6202L82.5539 77.8616L81.7952 71.4483L88.2087 70.6897L87.45 64.2765L153.721 56.4372L152.962 50.0239ZM100.277 62.7593L147.308 57.196L148.066 63.6093L101.035 69.1726L100.277 62.7593ZM141.653 64.368L107.449 68.4141L108.207 74.8274L114.623 74.0685L114.621 74.0691L115.38 80.4823L136.757 77.9535L135.999 71.5403L135.997 71.5401L142.411 70.7813L141.653 64.368Z" fill="black"/>
<rect width="6.458" height="6.458" transform="matrix(-0.993076 0.117473 0.117473 0.993076 140.893 57.9492)" fill="white"/>
<rect width="6.458" height="6.458" transform="matrix(-0.993076 0.117473 0.117473 0.993076 135.239 65.1187)" fill="white"/>
<rect width="6.458" height="6.458" transform="matrix(-0.993076 0.117473 0.117473 0.993076 81.0332 65.032)" fill="white"/>
<rect width="6.458" height="6.458" transform="matrix(-0.993076 0.117473 0.117473 0.993076 75.3794 72.2012)" fill="white"/>
<path d="M133.123 96.2891C138.424 103.276 132.617 115.932 122.553 115.746C120.36 115.705 118.12 116.523 116.616 118.12C108.67 126.562 91.9235 127.621 86.7381 115.948C86.2147 114.769 85.3805 113.722 84.2273 113.145L80.1139 111.089" stroke="black" stroke-width="4.69534" stroke-linecap="round"/>
<path d="M105.41 125.297C118.362 130.499 125.989 120.49 125.322 116.74L116.329 117.767L105.41 125.297Z" fill="black"/>
<defs>
<linearGradient id="paint0_linear_15_2465" x1="74.5322" y1="-2.18908" x2="74.5322" y2="163.862" gradientUnits="userSpaceOnUse">
<stop stop-color="#B133FF"/>
<stop offset="0.321025" stop-color="#7774F4"/>
<stop offset="1" stop-color="#7774F4"/>
</linearGradient>
</defs>
</svg>
