<svg width="17" height="17" viewBox="0 0 17 17" fill="none" xmlns="http://www.w3.org/2000/svg">
<path d="M8.14844 16.2969C12.6172 16.2969 16.2969 12.6172 16.2969 8.14844C16.2969 3.6875 12.6094 0 8.14062 0C3.67969 0 0 3.6875 0 8.14844C0 12.6172 3.67969 16.2969 8.14844 16.2969ZM7.95312 9.73438C7.39062 9.73438 7.07812 9.47656 7.07812 8.98438V8.90625C7.07812 8.21094 7.49219 7.80469 8.07031 7.39844C8.74219 6.92969 9.08594 6.69531 9.08594 6.20312C9.08594 5.71094 8.67188 5.35156 8.07812 5.35156C7.63281 5.35156 7.28125 5.54688 7.00781 5.96875L6.89844 6.11719C6.72656 6.34375 6.5 6.47656 6.1875 6.47656C5.80469 6.47656 5.47656 6.1875 5.47656 5.77344C5.47656 5.61719 5.51562 5.46875 5.57031 5.32812C5.85156 4.54688 6.8125 3.9375 8.21875 3.9375C9.71875 3.9375 10.9609 4.74219 10.9609 6.10938C10.9609 7.03906 10.4688 7.50781 9.64844 8.03125C9.14844 8.35938 8.84375 8.63281 8.79688 9.03125C8.79688 9.05469 8.79688 9.09375 8.78906 9.125C8.75 9.46875 8.4375 9.73438 7.95312 9.73438ZM7.94531 12.2891C7.38281 12.2891 6.92188 11.8984 6.92188 11.3516C6.92188 10.8125 7.375 10.4141 7.94531 10.4141C8.51562 10.4141 8.96094 10.8047 8.96094 11.3516C8.96094 11.9062 8.50781 12.2891 7.94531 12.2891Z" fill="black"/>
</svg>
