<svg width="142" height="128" viewBox="0 0 142 128" fill="none" xmlns="http://www.w3.org/2000/svg">
<path d="M81.0234 38.181H61.1813L53.3828 20.9528L81.0234 38.181Z" fill="#F6851B" stroke="#F6851B" stroke-width="0.55"/>
<path d="M53.3828 20.9528H88.8219L81.0234 38.181L53.3828 20.9528Z" fill="#F6851B" stroke="#F6851B" stroke-width="0.55"/>
<path d="M61.1812 38.181L11.7407 1.08594L53.3827 20.9527L61.1812 38.181Z" fill="#E4761B" stroke="#E4761B" stroke-width="0.55"/>
<path d="M130.464 1.08594L81.0234 38.181L88.822 20.9527L130.464 1.08594Z" fill="#E2761B" stroke="#E2761B" stroke-width="0.55"/>
<path d="M31.1939 54.7188L8.5578 48.4084L7.41602 43.219L31.1939 54.7188Z" fill="#763D16" stroke="#763D16" stroke-width="0.55"/>
<path d="M111.011 54.7188L134.789 43.219L133.647 48.4084L111.011 54.7188Z" fill="#763D16" stroke="#763D16" stroke-width="0.55"/>
<path d="M9.24524 54.6429L8.55762 48.4084L31.1938 54.7189L9.24524 54.6429Z" fill="#763D16" stroke="#763D16" stroke-width="0.55"/>
<path d="M132.96 54.6429L111.011 54.7189L133.647 48.4084L132.96 54.6429Z" fill="#763D16" stroke="#763D16" stroke-width="0.55"/>
<path d="M12.3037 63.7297L31.1937 54.7188L41.0034 56.0784L12.3037 63.7297Z" fill="#763D16" stroke="#763D16" stroke-width="0.55"/>
<path d="M9.24512 54.6429L31.1936 54.7189L12.3037 63.7298L9.24512 54.6429Z" fill="#763D16" stroke="#763D16" stroke-width="0.55"/>
<path d="M129.901 63.7297L101.202 56.0784L111.011 54.7188L129.901 63.7297Z" fill="#763D16" stroke="#763D16" stroke-width="0.55"/>
<path d="M132.96 54.6429L129.901 63.7298L111.011 54.7189L132.96 54.6429Z" fill="#763D16" stroke="#763D16" stroke-width="0.55"/>
<path d="M32.5267 25.8256L31.1939 54.7188L7.41602 43.219L32.5267 25.8256Z" fill="#763D16" stroke="#763D16" stroke-width="0.55"/>
<path d="M41.0035 56.0784L31.1938 54.7188L32.5267 25.8256L41.0035 56.0784Z" fill="#763D16" stroke="#763D16" stroke-width="0.55"/>
<path d="M134.789 43.219L111.012 54.7188L109.679 25.8256L134.789 43.219Z" fill="#763D16" stroke="#763D16" stroke-width="0.55"/>
<path d="M109.679 25.8256L111.011 54.7188L101.202 56.0784L109.679 25.8256Z" fill="#763D16" stroke="#763D16" stroke-width="0.55"/>
<path d="M49.9721 110.949L8.50586 126.935L41.2499 113.769L49.9721 110.949Z" fill="#E2761B" stroke="#E2761B" stroke-width="0.55"/>
<path d="M41.2495 113.769L48.7291 110.622L49.9718 110.949L41.2495 113.769Z" fill="#E2761B" stroke="#E2761B" stroke-width="0.55"/>
<path d="M92.2334 110.949L93.4761 110.622L100.956 113.769L92.2334 110.949Z" fill="#E2761B" stroke="#E2761B" stroke-width="0.55"/>
<path d="M100.956 113.769L133.7 126.935L92.2334 110.949L100.956 113.769Z" fill="#E2761B" stroke="#E2761B" stroke-width="0.55"/>
<path d="M4.43311 45.0123L7.41577 43.219L8.55756 48.4084L4.43311 45.0123Z" fill="#763D16" stroke="#763D16" stroke-width="0.55"/>
<path d="M137.772 45.0123L133.647 48.4084L134.789 43.219L137.772 45.0123Z" fill="#763D16" stroke="#763D16" stroke-width="0.55"/>
<path d="M32.5269 25.8256L61.1818 38.181L41.0037 56.0784L32.5269 25.8256Z" fill="#763D16" stroke="#763D16" stroke-width="0.55"/>
<path d="M101.201 56.0784L81.0234 38.181L109.678 25.8256L101.201 56.0784Z" fill="#763D16" stroke="#763D16" stroke-width="0.55"/>
<path d="M7.41601 43.219L4.1333 21.2654L32.5267 25.8256L7.41601 43.219Z" fill="#763D16" stroke="#763D16" stroke-width="0.55"/>
<path d="M109.679 25.8256L138.072 21.2654L134.789 43.219L109.679 25.8256Z" fill="#763D16" stroke="#763D16" stroke-width="0.55"/>
<path d="M9.24539 54.6429L5.16846 50.5979L8.55776 48.4084L9.24539 54.6429Z" fill="#763D16" stroke="#763D16" stroke-width="0.55"/>
<path d="M132.96 54.6429L133.648 48.4084L137.037 50.5979L132.96 54.6429Z" fill="#763D16" stroke="#763D16" stroke-width="0.55"/>
<path d="M12.3037 63.7298L6.47021 56.3101L9.24519 54.6429L12.3037 63.7298Z" fill="#763D16" stroke="#763D16" stroke-width="0.55"/>
<path d="M129.901 63.7298L132.96 54.6429L135.735 56.3101L129.901 63.7298Z" fill="#763D16" stroke="#763D16" stroke-width="0.55"/>
<path d="M41.2496 113.769L8.50553 126.935L1.10254 94.4941L41.2496 113.769Z" fill="#E4761B" stroke="#E4761B" stroke-width="0.55"/>
<path d="M141.103 94.4941L133.7 126.935L100.956 113.769L141.103 94.4941Z" fill="#E4761B" stroke="#E4761B" stroke-width="0.55"/>
<path d="M12.3037 63.7298L41.0034 56.0785L32.1311 64.6771L12.3037 63.7298Z" fill="#F6851B" stroke="#F6851B" stroke-width="0.55"/>
<path d="M129.901 63.7298L110.074 64.6771L101.202 56.0785L129.901 63.7298Z" fill="#F6851B" stroke="#F6851B" stroke-width="0.55"/>
<path d="M32.1312 64.677L1.10254 94.4941L12.3038 63.7297L32.1312 64.677Z" fill="#F6851B" stroke="#F6851B" stroke-width="0.55"/>
<path d="M110.074 64.677L129.901 63.7297L141.102 94.4941L110.074 64.677Z" fill="#F6851B" stroke="#F6851B" stroke-width="0.55"/>
<path d="M11.7407 1.08594L61.1812 38.181L32.5263 25.8256L11.7407 1.08594Z" fill="#763D16" stroke="#763D16" stroke-width="0.55"/>
<path d="M130.464 1.08594L138.072 21.2654L109.679 25.8256L130.464 1.08594Z" fill="#763D16" stroke="#763D16" stroke-width="0.55"/>
<path d="M32.5267 25.8256L4.1333 21.2654L11.7412 1.08594L32.5267 25.8256Z" fill="#763D16" stroke="#763D16" stroke-width="0.55"/>
<path d="M109.678 25.8256L81.0234 38.181L130.464 1.08594L109.678 25.8256Z" fill="#763D16" stroke="#763D16" stroke-width="0.55"/>
<path d="M27.1033 89.2696L1.10254 94.4941L32.1312 64.677L27.1033 89.2696Z" fill="#F6851B" stroke="#F6851B" stroke-width="0.55"/>
<path d="M110.074 64.677L141.102 94.4941L115.102 89.2696L110.074 64.677Z" fill="#F6851B" stroke="#F6851B" stroke-width="0.55"/>
<path d="M1.10254 94.4942L27.1033 89.2697L41.2496 113.769L1.10254 94.4942Z" fill="#E4761B" stroke="#E4761B" stroke-width="0.55"/>
<path d="M100.956 113.769L115.102 89.2697L141.103 94.4942L100.956 113.769Z" fill="#E4761B" stroke="#E4761B" stroke-width="0.55"/>
<path d="M41.0034 56.0785L61.1815 38.181L62.7749 64.3825L41.0034 56.0785Z" fill="#E4761B" stroke="#E4761B" stroke-width="0.55"/>
<path d="M62.775 64.3825L32.1313 64.6771L41.0036 56.0785L62.775 64.3825Z" fill="#E4761B" stroke="#E4761B" stroke-width="0.55"/>
<path d="M101.202 56.0785L110.074 64.6771L79.4302 64.3825L101.202 56.0785Z" fill="#E4761B" stroke="#E4761B" stroke-width="0.55"/>
<path d="M79.4302 64.3825L81.0236 38.181L101.202 56.0785L79.4302 64.3825Z" fill="#E4761B" stroke="#E4761B" stroke-width="0.55"/>
<path d="M61.1816 38.181H81.0237L79.4303 64.3825L61.1816 38.181Z" fill="#F6851B" stroke="#F6851B" stroke-width="0.55"/>
<path d="M79.4303 64.3825H62.775L61.1816 38.181L79.4303 64.3825Z" fill="#F6851B" stroke="#F6851B" stroke-width="0.55"/>
<path d="M41.2497 113.769L27.1035 89.2696L44.4508 88.0205L41.2497 113.769Z" fill="#CD6116" stroke="#CD6116" stroke-width="0.55"/>
<path d="M100.955 113.769L97.7544 88.0205L115.102 89.2696L100.955 113.769Z" fill="#CD6116" stroke="#CD6116" stroke-width="0.55"/>
<path d="M44.259 75.9746L32.1313 64.677L62.775 64.3824L44.259 75.9746Z" fill="#CD6116" stroke="#CD6116" stroke-width="0.55"/>
<path d="M79.4302 64.3824L110.074 64.677L97.9462 75.9746L79.4302 64.3824Z" fill="#CD6116" stroke="#CD6116" stroke-width="0.55"/>
<path d="M32.1314 64.677L44.4508 88.0205L27.1035 89.2696L32.1314 64.677Z" fill="#F6851B" stroke="#F6851B" stroke-width="0.55"/>
<path d="M115.102 89.2696L97.7544 88.0205L110.074 64.677L115.102 89.2696Z" fill="#F6851B" stroke="#F6851B" stroke-width="0.55"/>
<path d="M32.1313 64.677L44.259 75.9746L44.4508 88.0205L32.1313 64.677Z" fill="#E4751F" stroke="#E4751F" stroke-width="0.55"/>
<path d="M110.074 64.677L97.7544 88.0205L97.9462 75.9746L110.074 64.677Z" fill="#E4751F" stroke="#E4751F" stroke-width="0.55"/>
<path d="M62.7749 64.3824L55.3248 70.8503L44.2588 75.9746L62.7749 64.3824Z" fill="#CD6116" stroke="#CD6116" stroke-width="0.55"/>
<path d="M97.9462 75.9746L86.8803 70.8503L79.4302 64.3824L97.9462 75.9746Z" fill="#CD6116" stroke="#CD6116" stroke-width="0.55"/>
<path d="M47.4152 116.591L41.2495 113.769L59.1302 111.956L47.4152 116.591Z" fill="#C0AD9E" stroke="#C0AD9E" stroke-width="0.55"/>
<path d="M83.0747 111.956L100.955 113.769L94.7898 116.591L83.0747 111.956Z" fill="#C0AD9E" stroke="#C0AD9E" stroke-width="0.55"/>
<path d="M44.4506 88.0204L44.2588 75.9745L59.8101 79.3319L44.4506 88.0204Z" fill="#F6851B" stroke="#F6851B" stroke-width="0.55"/>
<path d="M97.7541 88.0204L82.3945 79.3319L97.9459 75.9745L97.7541 88.0204Z" fill="#F6851B" stroke="#F6851B" stroke-width="0.55"/>
<path d="M59.8101 79.3321L44.2588 75.9747L55.3248 70.8503L59.8101 79.3321Z" fill="#233447" stroke="#233447" stroke-width="0.55"/>
<path d="M82.3945 79.3321L86.8799 70.8503L97.9459 75.9747L82.3945 79.3321Z" fill="#233447" stroke="#233447" stroke-width="0.55"/>
<path d="M55.3247 70.8503L62.7748 64.3824L59.8101 79.3321L55.3247 70.8503Z" fill="#CD6116" stroke="#CD6116" stroke-width="0.55"/>
<path d="M86.8803 70.8503L82.3949 79.3321L79.4302 64.3824L86.8803 70.8503Z" fill="#CD6116" stroke="#CD6116" stroke-width="0.55"/>
<path d="M60.6438 91.5747L41.2495 113.769L44.4506 88.0205L60.6438 91.5747Z" fill="#E4761B" stroke="#E4761B" stroke-width="0.55"/>
<path d="M81.561 91.5747L97.7543 88.0205L100.955 113.769L81.561 91.5747Z" fill="#E4761B" stroke="#E4761B" stroke-width="0.55"/>
<path d="M59.0424 104.466L59.1302 111.956L41.2495 113.769L59.0424 104.466Z" fill="#D7C1B3" stroke="#D7C1B3" stroke-width="0.55"/>
<path d="M41.2495 113.769L60.6438 91.5747L59.0424 104.466L41.2495 113.769Z" fill="#D7C1B3" stroke="#D7C1B3" stroke-width="0.55"/>
<path d="M83.1625 104.466L100.955 113.769L83.0747 111.956L83.1625 104.466Z" fill="#D7C1B3" stroke="#D7C1B3" stroke-width="0.55"/>
<path d="M100.955 113.769L83.1624 104.466L81.561 91.5747L100.955 113.769Z" fill="#D7C1B3" stroke="#D7C1B3" stroke-width="0.55"/>
<path d="M63.4166 72.6177L62.7749 64.3824H79.4302L63.4166 72.6177Z" fill="#F6851B" stroke="#F6851B" stroke-width="0.55"/>
<path d="M79.4306 64.3824L78.7889 72.6177H63.417L79.4306 64.3824Z" fill="#F6851B" stroke="#F6851B" stroke-width="0.55"/>
<path d="M59.8101 79.3321L62.7748 64.3824L63.4165 72.6177L59.8101 79.3321Z" fill="#E4751F" stroke="#E4751F" stroke-width="0.55"/>
<path d="M82.395 79.3321L78.7886 72.6177L79.4303 64.3824L82.395 79.3321Z" fill="#E2761B" stroke="#E2761B" stroke-width="0.55"/>
<path d="M59.1306 111.956L60.1551 117.043L47.4155 116.591L59.1306 111.956Z" fill="#C0AD9E" stroke="#C0AD9E" stroke-width="0.55"/>
<path d="M94.7899 116.591L82.0503 117.043L83.0748 111.956L94.7899 116.591Z" fill="#C0AD9E" stroke="#C0AD9E" stroke-width="0.55"/>
<path d="M60.6439 91.5746L44.4507 88.0205L59.8102 79.332L60.6439 91.5746Z" fill="#F6851B" stroke="#F6851B" stroke-width="0.55"/>
<path d="M82.3947 79.332L97.7543 88.0205L81.561 91.5746L82.3947 79.332Z" fill="#F6851B" stroke="#F6851B" stroke-width="0.55"/>
<path d="M63.4165 72.6178L63.3484 89.7162L59.8101 79.3322L63.4165 72.6178Z" fill="#E4751F" stroke="#E4751F" stroke-width="0.55"/>
<path d="M78.7886 72.6178L82.395 79.3322L78.8566 89.7162L78.7886 72.6178Z" fill="#E4751F" stroke="#E4751F" stroke-width="0.55"/>
<path d="M59.8101 79.332L63.3484 89.7161L60.6438 91.5746L59.8101 79.332Z" fill="#F6851B" stroke="#F6851B" stroke-width="0.55"/>
<path d="M81.5611 91.5746L78.8564 89.7161L82.3948 79.332L81.5611 91.5746Z" fill="#F6851B" stroke="#F6851B" stroke-width="0.55"/>
<path d="M63.417 72.6178H78.7889L78.8569 89.7162L63.417 72.6178Z" fill="#F6851B" stroke="#F6851B" stroke-width="0.55"/>
<path d="M78.8567 89.7162H63.3486L63.4167 72.6178L78.8567 89.7162Z" fill="#F6851B" stroke="#F6851B" stroke-width="0.55"/>
<path d="M59.7647 117.043L59.0995 111.956L59.0425 104.466L59.7647 117.043Z" fill="#C0AD9E" stroke="#C0AD9E" stroke-width="0.55"/>
<path d="M82.7725 104.466L82.7155 111.956L82.0503 117.043L82.7725 104.466Z" fill="#C0AD9E" stroke="#C0AD9E" stroke-width="0.55"/>
<path d="M59.0425 104.466L60.2009 102.18L59.9572 117.043L59.0425 104.466Z" fill="#C0AD9E" stroke="#C0AD9E" stroke-width="0.55"/>
<path d="M60.1553 117.043L60.4517 102.18H81.7543L60.1553 117.043Z" fill="#C0AD9E" stroke="#C0AD9E" stroke-width="0.55"/>
<path d="M81.7543 102.18L82.0507 117.043H60.1553L81.7543 102.18Z" fill="#C0AD9E" stroke="#C0AD9E" stroke-width="0.55"/>
<path d="M81.9977 117.043L81.7539 102.18L82.9124 104.466L81.9977 117.043Z" fill="#C0AD9E" stroke="#C0AD9E" stroke-width="0.55"/>
<path d="M60.3594 102.18L59.0425 104.466L60.5395 91.5747L60.3594 102.18Z" fill="#161616" stroke="#161616" stroke-width="0.55"/>
<path d="M81.561 91.5747L83.058 104.466L81.7411 102.18L81.561 91.5747Z" fill="#161616" stroke="#161616" stroke-width="0.55"/>
<path d="M63.1978 90.0056L63.3485 89.7161H78.8565L63.1978 90.0056Z" fill="#161616" stroke="#161616" stroke-width="0.55"/>
<path d="M78.8565 89.7161L79.0073 90.0056H63.1978L78.8565 89.7161Z" fill="#161616" stroke="#161616" stroke-width="0.55"/>
<path d="M60.644 91.5746L63.3487 89.7161L63.1979 90.2951L60.644 91.5746Z" fill="#161616" stroke="#161616" stroke-width="0.55"/>
<path d="M79.0072 90.2951L78.8564 89.7161L81.5611 91.5746L79.0072 90.2951Z" fill="#161616" stroke="#161616" stroke-width="0.55"/>
<path d="M60.565 91.5747L61.0497 92.2235L60.4512 102.18L60.565 91.5747Z" fill="#161616" stroke="#161616" stroke-width="0.55"/>
<path d="M63.1979 90.2952L61.464 92.2234L60.644 91.5747L63.1979 90.2952Z" fill="#161616" stroke="#161616" stroke-width="0.55"/>
<path d="M81.3398 102.18L80.7412 92.2235L81.2259 91.5747L81.3398 102.18Z" fill="#161616" stroke="#161616" stroke-width="0.55"/>
<path d="M81.5612 91.5747L80.7412 92.2234L79.0073 90.2952L81.5612 91.5747Z" fill="#161616" stroke="#161616" stroke-width="0.55"/>
<path d="M61.4639 92.2235H80.7412L81.7538 102.18L61.4639 92.2235Z" fill="#161616" stroke="#161616" stroke-width="0.55"/>
<path d="M81.7537 102.18H60.4512L61.4638 92.2235L81.7537 102.18Z" fill="#161616" stroke="#161616" stroke-width="0.55"/>
<path d="M79.0073 90.2952L80.7412 92.2234H61.4639L79.0073 90.2952Z" fill="#161616" stroke="#161616" stroke-width="0.55"/>
<path d="M61.4639 92.2234L63.1978 90.2952H79.0073L61.4639 92.2234Z" fill="#161616" stroke="#161616" stroke-width="0.55"/>
</svg>
