<svg width="646" height="169" viewBox="0 0 646 169" fill="none" xmlns="http://www.w3.org/2000/svg">
<path d="M87.4375 23.9393C86.7377 24.6813 86.1519 25.3154 85.7139 25.7945C80.719 24.6961 74.6653 24.127 69.5822 24.127C65.7524 24.127 61.9962 24.4496 58.3398 25.0695C52.817 23.4196 48.4522 21.8496 43.1472 16.2745C42.7309 15.8369 42.2867 15.3625 41.8182 14.8622C39.1148 11.9751 35.6049 8.22693 32.0012 5.73531C29.8754 4.26557 27.4846 3.0603 24.9995 2.83166C22.3711 2.58984 19.854 3.46369 17.7335 5.71477C13.9668 9.71361 10.6177 17.6801 8.66308 27.9313C6.71558 38.1449 6.09042 50.9424 7.96741 65.0993C4.63502 73.0439 2.79479 81.767 2.79479 90.9144C2.79479 104.56 6.88927 117.255 13.917 127.832C24.5682 150.562 47.6555 166.312 74.4261 166.312C105.642 166.312 131.851 144.899 139.175 115.962C143.247 108.599 145.525 100.402 145.525 91.7593C145.525 74.1729 136.112 58.5157 121.431 47.8742C117.163 39.6951 116.975 33.9533 116.77 27.7192C116.732 26.5619 116.693 25.3875 116.628 24.1775C116.561 22.9397 116.528 21.853 116.496 20.7997C116.473 20.0271 116.45 19.2723 116.415 18.4891C116.338 16.7799 116.204 15.1015 115.819 13.6436C115.426 12.156 114.719 10.6948 113.35 9.64653C111.99 8.60415 110.276 8.20077 108.338 8.20079C107.095 8.20081 105.832 8.64156 104.703 9.1861C103.536 9.74857 102.309 10.5226 101.084 11.4002C98.6331 13.1567 96.0065 15.4636 93.6219 17.7212C91.2278 19.9879 89.032 22.2487 87.4375 23.9393Z" fill="url(#paint0_linear_15_2627)" stroke="black" stroke-width="4.41481"/>
<path fill-rule="evenodd" clip-rule="evenodd" d="M7.4551 108.611C9.3101 115.136 12.1653 121.24 15.8443 126.746C26.1144 148.81 48.4831 164.105 74.4242 164.105C104.705 164.105 130.119 143.264 137.103 115.144C141.092 108.022 143.316 100.103 143.316 91.7597C143.316 83.4058 141.087 75.4771 137.088 68.3487C134.61 67.5144 132.471 67.5108 130.784 68.4488C128.181 69.8961 126.941 73.4247 126.93 78.4727C126.923 81.6685 123.628 84.1905 120.569 83.2658C111.665 80.5741 103.03 80.93 95.8021 84.9485C93.9813 85.9608 92.3134 87.1703 90.7995 88.5562C83.8767 94.8942 68.1896 98.9865 60.9028 93.0706C46.8187 81.6362 31.714 77.4189 20.7449 83.5175C12.7717 87.9505 8.33752 97.081 7.4551 108.611Z" fill="white"/>
<path fill-rule="evenodd" clip-rule="evenodd" d="M70.1187 149.572C49.6683 151.456 29.1676 136.629 14.8363 124.463C24.5929 147.747 47.5986 164.103 74.4244 164.103C104.635 164.103 130 143.359 137.054 115.339L135.708 118.369C134.347 121.435 130.53 122.501 127.777 120.586V120.586C127.359 122.827 126.46 124.93 125.175 126.815C121.573 131.374 116.89 134.344 111.087 135.419C109.774 135.639 108.417 135.755 107.028 135.755C103.204 135.755 99.6178 134.877 96.5285 133.344C97.2638 135.786 90.569 147.689 70.1187 149.572Z" fill="#EBE8F3"/>
<path d="M23.2412 48.9233C19.5464 36.8249 20.4919 22.0131 23.2412 13.4641C28.0553 29.5765 39.7157 39.0601 39.7157 39.0601C34.8527 40.1158 27.905 44.2039 23.2412 48.9233Z" fill="black"/>
<path d="M98.8854 91.7219C102.541 83.9237 124.022 82.531 127.408 91.7219C129.292 96.8344 121.702 108.463 116.645 109.212C109.38 110.289 94.8491 100.333 98.8854 91.7219Z" fill="black"/>
<path opacity="0.5" d="M77.2148 54.2935C74.2961 56.5606 63.4384 56.7519 62.3507 53.4337C61.2629 50.1155 68.2658 42.9736 73.3662 45.2319C77.6189 47.1148 80.9879 51.3628 77.2148 54.2935Z" fill="white"/>
<path opacity="0.5" d="M111.187 49.9085C109.162 52.944 103.72 52.6067 101.557 49.9085C99.3929 47.2103 99.7267 42.0856 105.37 42.5028C110.076 42.8506 112.547 47.8684 111.187 49.9085Z" fill="white"/>
<path d="M95.4011 135.447C94.1884 134.369 95.707 132.983 97.1831 133.656C100.119 134.996 103.47 135.754 107.026 135.754C116.167 135.754 123.945 130.742 126.836 123.743C127.098 123.11 128.04 123.173 128.04 123.859C128.04 133.007 119.517 140.423 109.004 140.423C103.675 140.423 98.8567 138.517 95.4011 135.447Z" fill="black"/>
<path fill-rule="evenodd" clip-rule="evenodd" d="M152.652 50.0239L19.0415 65.8289L19.8001 72.2422L40.1085 69.8399L40.8671 76.253L47.2803 75.4943L48.0389 81.9076L54.4535 81.1488L54.4527 81.1491L55.2114 87.5624L76.589 85.0336L75.8303 78.6203L75.8295 78.6202L82.2431 77.8616L81.4844 71.4483L87.8979 70.6897L87.1393 64.2765L153.41 56.4372L152.652 50.0239ZM99.966 62.7593L146.997 57.196L147.755 63.6093L100.725 69.1726L99.966 62.7593ZM141.342 64.368L107.138 68.4141L107.896 74.8274L114.312 74.0685L114.31 74.0691L115.069 80.4823L136.447 77.9535L135.688 71.5403L135.686 71.5401L142.101 70.7813L141.342 64.368Z" fill="black"/>
<rect width="6.458" height="6.458" transform="matrix(-0.993076 0.117473 0.117473 0.993076 140.582 57.9492)" fill="white"/>
<rect width="6.458" height="6.458" transform="matrix(-0.993076 0.117473 0.117473 0.993076 134.928 65.1187)" fill="white"/>
<rect width="6.458" height="6.458" transform="matrix(-0.993076 0.117473 0.117473 0.993076 80.7223 65.032)" fill="white"/>
<rect width="6.458" height="6.458" transform="matrix(-0.993076 0.117473 0.117473 0.993076 75.0686 72.2012)" fill="white"/>
<path d="M132.813 96.2891C138.113 103.276 132.307 115.932 122.242 115.746C120.049 115.705 117.809 116.523 116.305 118.12C108.359 126.562 91.6127 127.621 86.4274 115.948C85.9039 114.769 85.0697 113.722 83.9165 113.145L79.8031 111.089" stroke="black" stroke-width="4.69534" stroke-linecap="round"/>
<path d="M105.099 125.297C118.051 130.499 125.678 120.49 125.011 116.74L116.018 117.767L105.099 125.297Z" fill="black"/>
<path d="M196.512 103.675V59.4023H228.136V65.727H234.46V72.0517H240.785V91.0259H234.46V97.3506H228.136V103.675H196.512ZM209.162 97.3506H221.811V91.0259H228.136V72.0517H221.811V65.727H209.162V97.3506ZM253.435 103.675V97.3506H247.11V65.727H253.435V59.4023H285.058V65.727H291.383V97.3506H285.058V103.675H253.435ZM259.759 97.3506H278.733V65.727H259.759V97.3506ZM310.357 103.675V97.3506H304.032V91.0259H297.708V72.0517H304.032V65.727H310.357V59.4023H341.981V65.727H316.682V72.0517H310.357V91.0259H316.682V97.3506H329.331V84.7011H323.006V78.3764H341.981V103.675H310.357ZM348.305 103.675V59.4023H392.578V65.727H360.955V78.3764H386.254V84.7011H360.955V97.3506H392.578V103.675H348.305ZM409.276 103.675V97.3506H402.951V91.0259H396.626V72.0517H402.951V65.727H409.276V59.4023H434.574V65.727H440.899V72.0517H428.25V65.727H415.6V72.0517H409.276V91.0259H415.6V97.3506H428.25V91.0259H440.899V97.3506H434.574V103.675H409.276ZM447.224 103.675V59.4023H459.873V78.3764H478.847V59.4023H491.497V103.675H478.847V84.7011H459.873V103.675H447.224ZM497.822 103.675V72.0517H504.146V65.727H510.471V59.4023H529.445V65.727H535.77V72.0517H542.095V103.675H529.445V91.0259H510.471V103.675H497.822ZM510.471 84.7011H529.445V72.0517H523.12V65.727H516.796V72.0517H510.471V84.7011ZM549.684 103.675V97.3506H562.334V65.727H549.684V59.4023H587.632V65.727H574.983V97.3506H587.632V103.675H549.684ZM593.957 103.675V59.4023H606.607V65.727H612.931V72.0517H619.256V78.3764H625.581V59.4023H638.23V103.675H625.581V91.0259H619.256V84.7011H612.931V78.3764H606.607V103.675H593.957Z" fill="white"/>
<defs>
<linearGradient id="paint0_linear_15_2627" x1="74.2214" y1="-2.18908" x2="74.2214" y2="163.862" gradientUnits="userSpaceOnUse">
<stop stop-color="#B133FF"/>
<stop offset="0.321025" stop-color="#7774F4"/>
<stop offset="1" stop-color="#7774F4"/>
</linearGradient>
</defs>
</svg>
