<svg width="141" height="141" viewBox="0 0 141 141" fill="none" xmlns="http://www.w3.org/2000/svg">
<circle cx="70.3799" cy="70.7296" r="70" fill="#4099FF"/>
<path fill-rule="evenodd" clip-rule="evenodd" d="M47.0068 56.8694C51.3837 51.2203 58.8325 44.5747 69.6611 44.5747C80.3913 44.5747 88.2048 51.1161 92.9332 56.653C93.7647 57.6268 94.5256 58.5972 95.2154 59.5365L86.8073 67.9447C86.0262 66.7796 85.0961 65.5155 84.0246 64.2608C80.1921 59.773 75.342 56.2897 69.6611 56.2897C64.0786 56.2897 59.6576 59.6689 56.2674 64.0445C55.3827 65.1863 54.6168 66.3378 53.9695 67.4137L45.4962 58.9404C45.9646 58.2586 46.4678 57.5649 47.0068 56.8694ZM98.2741 69.02C100.34 68.1004 100.339 68.0991 100.339 68.0976L100.337 68.0934L100.332 68.0834L100.321 68.058L100.288 67.9854C100.261 67.9275 100.226 67.8507 100.181 67.7562C100.121 67.6291 100.045 67.4697 99.9521 67.2813L98.2741 69.02ZM45.9214 72.5669L48.4425 75.1387C47.7116 75.6086 46.8643 76.0422 45.9214 76.3391V72.5669ZM40.85 67.3939L41.1286 67.6781C40.6939 68.12 40.4485 68.4321 40.4235 68.4639L40.4234 68.464L40.4233 68.4641C40.422 68.4657 40.4214 68.4666 40.4214 68.4665L40.4231 68.4619L40.427 68.4514L40.4368 68.4247L40.4651 68.3495C40.4877 68.2898 40.5179 68.2112 40.5557 68.1148C40.6266 67.9343 40.7246 67.6913 40.85 67.3939Z" fill="white"/>
<path d="M111.764 63.4698L84.6341 91.4009L70.2113 76.5523L55.9352 91.2498L31.7647 66.3658" stroke="white" stroke-width="11.715"/>
</svg>
